<?xml version="1.0" standalone="no"?>
<!DOCTYPE svg PUBLIC "-//W3C//DTD SVG 20010904//EN"
 "http://www.w3.org/TR/2001/REC-SVG-20010904/DTD/svg10.dtd">
<svg version="1.0" xmlns="http://www.w3.org/2000/svg"
 width="1280.000000pt" height="640.000000pt" viewBox="0 0 1280.000000 640.000000"
 preserveAspectRatio="xMidYMid meet">
<metadata>
Created by potrace 1.15, written by Peter Selinger 2001-2017
</metadata>
<g transform="translate(0.000000,640.000000) scale(0.100000,-0.100000)"
fill="#000000" stroke="none">
<path d="M2950 5898 c-308 -19 -515 -84 -1040 -326 -224 -103 -339 -149 -464
-189 -78 -25 -92 -32 -114 -66 -46 -69 -30 -112 65 -178 50 -35 59 -36 67 -5
7 29 91 111 181 177 169 123 457 274 690 361 391 147 682 174 865 80 l55 -28
56 -134 c31 -74 68 -168 82 -207 l27 -73 -162 0 c-158 0 -221 -4 -633 -36
-110 -8 -315 -18 -455 -21 -276 -6 -311 -13 -365 -67 -32 -32 -31 -58 1 -122
l26 -51 51 28 c165 88 673 172 1175 194 178 8 382 -2 387 -19 2 -6 55 -171
119 -367 64 -196 116 -361 116 -365 0 -5 -31 -21 -68 -37 -186 -75 -382 -232
-522 -419 -32 -42 -91 -132 -133 -200 -111 -181 -147 -280 -147 -407 0 -70 -2
-76 -35 -112 -39 -44 -71 -102 -91 -168 -14 -47 -18 -225 -5 -270 6 -22 10
-18 46 44 50 86 127 164 194 198 l52 25 52 -22 c87 -39 188 -57 325 -57 146
-1 255 12 390 47 289 75 515 197 693 374 97 97 155 180 195 279 15 38 29 57
42 59 17 3 22 -8 37 -68 35 -144 120 -276 202 -315 42 -20 39 -25 -52 -80
-113 -68 -304 -109 -603 -131 -70 -5 -99 -11 -118 -26 -28 -23 -51 -64 -56
-100 -2 -16 -35 -55 -93 -109 -153 -145 -287 -320 -385 -502 -23 -42 -47 -77
-53 -77 -16 0 -141 -75 -237 -143 -175 -125 -364 -298 -508 -465 -62 -73 -73
-101 -49 -132 6 -9 2 -6 -9 6 l-22 23 -23 -25 c-12 -13 -31 -24 -41 -24 -23 0
-94 -46 -102 -66 -14 -36 32 -64 129 -79 57 -8 402 -8 415 0 5 3 87 10 182 16
95 5 228 19 294 30 67 11 125 19 130 18 30 -5 54 3 54 18 0 9 2 14 5 11 4 -4
-41 -318 -49 -344 -3 -6 -26 -17 -53 -23 -129 -33 -408 -155 -596 -262 -211
-120 -487 -317 -508 -362 -7 -17 -6 -32 7 -62 l17 -40 14 50 c8 28 16 55 18
62 8 24 53 26 84 4 16 -12 31 -21 34 -21 2 0 9 19 15 43 6 23 27 61 47 82 l35
40 19 -22 19 -23 6 45 c8 51 17 59 146 128 230 124 560 239 726 254 l72 6 28
-49 c16 -27 39 -78 52 -114 l23 -65 -6 128 c-5 114 -4 130 13 155 39 57 93
231 122 400 l13 72 144 0 c116 0 148 -3 169 -16 13 -9 27 -14 31 -11 3 3 26
-4 52 -17 66 -33 131 -45 341 -61 380 -30 376 -30 480 -5 104 25 204 28 355
11 174 -20 296 -8 345 34 36 31 165 53 354 59 l79 2 -7 -161 -7 -162 117 60
c117 59 118 60 134 39 12 -15 19 -49 23 -127 3 -59 8 -110 11 -113 3 -2 35 14
70 37 l65 43 39 -32 c42 -33 52 -66 52 -166 0 -24 3 -44 6 -44 4 0 29 16 57
36 50 36 51 36 81 20 39 -21 86 -91 119 -176 14 -36 39 -102 57 -147 17 -46
35 -85 40 -88 13 -8 23 96 18 203 -8 178 -39 218 -363 459 -99 73 -189 142
-200 152 -11 10 -38 29 -60 43 -22 14 -62 46 -90 71 l-50 46 110 2 c61 1 124
4 140 8 28 6 30 10 33 54 3 46 2 47 -26 47 -16 0 -73 7 -128 15 -54 8 -140 15
-190 15 l-92 0 -31 35 c-58 66 -161 229 -161 254 0 5 78 64 174 130 l174 121
38 -17 c96 -40 178 -55 314 -58 126 -2 140 -5 201 -32 l66 -30 24 -112 c13
-61 26 -111 29 -111 3 1 26 30 53 65 26 36 54 65 61 65 9 0 25 -31 41 -80 15
-44 28 -80 31 -80 2 0 13 17 23 37 36 67 35 67 68 49 23 -11 32 -25 37 -51 4
-20 8 -42 10 -48 1 -7 1 -10 -1 -7 -8 13 -259 -16 -413 -46 -198 -40 -290 -82
-290 -134 0 -20 5 -30 15 -30 8 0 15 -7 15 -15 0 -25 90 -84 159 -104 137 -41
494 -87 736 -96 88 -4 174 -8 190 -11 216 -30 913 -66 1307 -68 265 -1 299 1
314 16 36 35 -10 100 -106 148 -78 39 -278 110 -465 165 -88 25 -239 71 -335
100 -96 30 -195 59 -220 66 -54 14 -640 28 -640 15 0 -4 -15 14 -32 40 -40 59
-102 93 -275 148 -65 20 -126 41 -135 46 -10 6 -26 10 -35 10 -26 0 -210 92
-260 129 -35 25 -43 37 -43 62 0 31 0 32 -42 25 -146 -21 -208 -27 -248 -21
-76 10 -101 16 -98 25 2 5 55 47 118 95 215 163 323 273 336 342 5 29 -1 41
-69 120 -103 121 -284 298 -394 385 -74 60 -238 167 -273 180 -5 2 -6 31 -3
65 7 78 24 87 68 39 37 -40 71 -56 122 -56 19 0 61 -7 92 -15 87 -22 462 -91
601 -110 136 -19 140 -20 259 -113 329 -255 837 -451 1361 -523 143 -20 502
-17 618 4 51 10 104 22 119 28 32 12 38 7 215 -191 231 -259 418 -516 524
-723 31 -60 58 -107 60 -104 3 2 18 51 34 107 16 56 32 105 34 108 10 9 290
-225 424 -354 194 -185 338 -357 418 -497 l22 -40 11 39 c6 21 13 58 17 81 10
64 30 54 44 -22 7 -36 14 -65 16 -65 2 0 18 9 36 20 41 25 85 25 121 1 47 -30
61 -60 67 -141 7 -81 4 -82 43 13 l16 38 38 -16 c89 -37 144 -106 164 -209
l12 -58 34 58 c43 77 67 156 58 200 -14 76 -124 148 -350 228 -294 104 -304
110 -368 181 -115 128 -404 369 -629 523 -70 48 -127 93 -128 101 0 23 -59
120 -122 203 -83 109 -239 278 -428 461 l-162 159 23 16 c85 57 155 176 169
287 18 144 -21 298 -131 510 -208 405 -464 729 -711 902 -67 47 -68 49 -63 85
10 74 90 295 145 403 31 61 81 145 112 186 56 75 159 179 176 179 10 0 17 -14
79 -160 233 -550 383 -1122 383 -1468 l0 -82 71 77 c39 43 75 80 80 81 13 5
52 -39 136 -150 230 -305 396 -594 473 -823 l37 -110 35 69 35 69 22 -24 c12
-13 34 -45 48 -72 l26 -47 46 27 c91 54 233 26 266 -52 8 -19 22 -52 32 -73
l16 -37 15 60 c8 33 16 61 18 63 1 2 38 -3 82 -11 125 -24 200 -70 249 -155
l27 -46 30 64 c17 36 32 88 34 117 4 52 3 55 -36 92 -44 42 -119 67 -287 96
-75 12 -494 55 -546 55 -11 0 -32 33 -61 93 -93 191 -350 543 -579 792 -55 60
-55 60 -73 165 -53 309 -239 807 -488 1305 -60 121 -116 241 -124 266 -33 107
-109 149 -215 117 -47 -14 -114 -68 -136 -111 -8 -17 -53 -156 -99 -309 -46
-153 -106 -350 -134 -437 l-51 -158 -83 34 c-441 176 -949 81 -1407 -264 -119
-90 -258 -227 -289 -286 l-23 -43 -36 18 c-44 22 -80 23 -124 2 -31 -15 -36
-15 -65 0 -54 28 -114 17 -163 -30 l-26 -25 -84 35 c-284 116 -787 256 -1164
322 -199 34 -436 44 -517 20 -109 -31 -200 -154 -244 -329 -20 -83 -40 -88
-79 -21 -38 65 -129 152 -205 197 -122 71 -317 114 -452 100 l-58 -6 77 139
c170 308 214 426 176 473 -42 51 -373 138 -602 157 l-80 7 -16 76 c-70 328
-121 469 -180 502 -38 21 -168 28 -335 17z m786 -713 c50 -13 117 -37 150 -53
60 -30 134 -100 134 -126 0 -26 -72 -241 -122 -362 l-49 -122 -44 -11 c-24 -6
-48 -11 -53 -11 -14 0 -98 196 -147 345 -38 112 -74 241 -99 349 l-7 28 73 -7
c40 -4 114 -18 164 -30z m3016 -1425 c47 -34 118 -41 156 -15 19 14 24 14 51
0 38 -19 94 -19 132 1 17 8 32 14 33 12 2 -2 19 -33 39 -71 l37 -68 -63 6
c-234 20 -302 26 -384 36 l-91 11 14 40 c8 22 14 49 14 59 0 26 14 24 62 -11z
m-887 -285 c32 -19 73 -39 91 -45 19 -7 34 -15 34 -19 0 -4 7 -52 15 -107 8
-54 26 -216 40 -359 l26 -260 32 -33 c35 -37 77 -62 102 -62 16 0 215 -167
215 -179 -1 -13 -162 -134 -240 -181 -89 -53 -210 -104 -290 -121 -27 -6 -50
-12 -50 -14 0 -2 30 -17 66 -34 104 -49 351 -219 362 -250 4 -13 -182 -19
-267 -10 -423 47 -1300 100 -1526 92 -104 -3 -127 -7 -173 -29 -29 -14 -50
-29 -47 -34 6 -10 -55 -20 -121 -20 l-51 0 -5 105 c-3 58 -10 111 -16 118 -11
14 59 193 74 190 5 -1 36 -13 69 -26 l61 -24 -1 52 c0 63 26 102 113 168 86
65 141 96 462 262 162 84 327 171 365 195 305 186 431 324 437 476 1 26 12 72
24 103 24 59 27 61 135 80 4 0 32 -15 64 -34z m-613 -109 c43 -50 145 -106
191 -106 l29 0 -42 -50 c-23 -27 -76 -78 -118 -113 -210 -175 -422 -273 -1022
-475 -107 -35 -203 -72 -214 -81 -31 -27 -66 -107 -66 -152 0 -24 8 -55 20
-74 l20 -32 -58 -114 c-33 -63 -81 -169 -108 -236 l-49 -122 -55 5 c-30 3 -82
9 -115 14 -123 19 -343 32 -435 27 -89 -6 -190 -27 -285 -60 -27 -9 -42 -22
-46 -38 l-7 -24 -1 25 c-1 37 17 96 34 110 13 11 18 10 30 -6 13 -17 14 -15
15 27 0 42 4 50 48 90 112 105 292 229 437 301 132 66 129 66 146 16 8 -24 14
-73 14 -110 0 -36 2 -64 4 -62 2 2 16 41 31 87 23 71 34 90 73 126 109 101
306 455 307 552 0 15 13 38 35 59 l34 33 45 -49 c43 -47 45 -48 46 -23 1 71
88 134 260 188 52 16 154 48 225 71 172 54 284 110 352 176 49 48 58 53 106
57 29 2 58 4 66 5 7 1 31 -18 53 -42z m1136 -76 c305 -157 413 -229 464 -309
48 -77 49 -76 -163 -300 -105 -110 -196 -201 -204 -201 -18 0 -89 81 -147 166
-45 68 -46 70 -38 121 8 50 7 55 -30 110 -47 72 -84 161 -104 256 -17 75 -35
254 -27 262 13 13 53 -4 249 -105z m1269 -1324 l23 -21 -46 3 c-33 3 -50 -1
-66 -14 -19 -18 -19 -16 3 23 27 47 45 49 86 9z m-4817 -217 c13 -9 13 -10 -2
-6 -22 8 -35 -10 -41 -53 -4 -35 -4 -35 -5 6 -1 22 3 45 10 52 15 15 19 15 38
1z"/>
</g>
</svg>
